<svg id="e5w9AfoGIEq1" xmlns="http://www.w3.org/2000/svg" xmlns:xlink="http://www.w3.org/1999/xlink" viewBox="0 0 300 300" shape-rendering="geometricPrecision" text-rendering="geometricPrecision" project-id="308f19a3e91645859f18391ca476a534" export-id="9e337e6829fd415abc7a5396686ccdd6" cached="false"><path d="M91.801557,100.457185c26.144255,17.674323,79.029009,19.369242,106.017545,0l-18.163845,128.62968c-12.822616,12.572844-46.454232,15.463403-70.060547,0L91.801557,100.457185Z" transform="matrix(1 0 0 0.847794 0.000001 15.261976)" fill="none" stroke="#f60a28" stroke-width="0.6"/><path d="M91.435908,98.759923c-5.631555-6.313376-7.59852-14.750433.365649-17.949347c1.11363-12.500181,11.052926-12.812268,17.793153-10.008649c10.307708-10.556937,20.765543-3.205861,25.948351,4.077598c11.76318.347178,15.374768,9.467227,9.267269,17.422463c9.547409,3.995008,7.639474,12.024371-.000001,18.763905" transform="translate(.000264 0.114606)" fill="none" stroke="#d8e417" stroke-width="0.6"/><path d="M198.424286,98.874529c8.797917-6.863294,9.577516-15.36771-.605185-18.063952c1.865935-16.007004-8.886174-19.967051-18.163843-15.208182-4.02007-9.032866-14.770111-9.032799-21.500062,0-13.508812-1.975218-11.409448,3.917109-13.849821,10.689984" transform="translate(.000002 0)" fill="none" stroke="#d8e417" stroke-width="0.6"/><path d="M118.974082,64.549661c-3.246247-6.625928-.47232-11.496749,6.931021-9.687434c1.188717-7.77403,8.831727-10.514334,14.827628-6.672433c4.48855-5.17686,12.757471-8.159322,17.422465,1.112072c9.731095-3.84069,12.704388,1.912168,10.469417,8.716343" transform="translate(.000002 0)" fill="none" stroke="#d8e417" stroke-width="0.6"/><path d="M144.810331,126.034844l.000001,83.445601" transform="translate(0 0.000001)" fill="none" stroke="#dcdcdc" stroke-width="0.6"/><path d="M125.905105,121.586557l5.560358,87.893889" transform="translate(.000001 0)" fill="none" stroke="#df132d" stroke-width="0.6"/><path d="M179.65526,116.767577l-10.406724,88.595082" transform="translate(.000001 0)" fill="none" stroke="#dcdcdc" stroke-width="0.6"/><path d="M162.603485,121.586557l-4.448287,87.893888" fill="none" stroke="#df132d" stroke-width="0.6"/><path d="M109.594711,116.767577l9.379373,88.595082" fill="none" stroke="#dcdcdc" stroke-width="0.6"/></svg>
